<svg xmlns="http://www.w3.org/2000/svg" xmlns:xlink="http://www.w3.org/1999/xlink" preserveAspectRatio="xMidYMid meet" version="1.0" viewBox="0.0 0.0 3526.1 2837.8" zoomAndPan="magnify" style="fill: rgb(0, 0, 0);" original_string_length="6096"><g id="__id283_sjkre9f4hm" style="fill: rgb(0, 0, 0);"><path d="M 3184.800781 2252.019531 L 341.328125 2252.019531 C 220.851562 2252.019531 122.097656 2158.210938 113.699219 2039.828125 L 3412.417969 2039.828125 C 3404.023438 2158.210938 3305.292969 2252.019531 3184.800781 2252.019531 Z M 1943.109375 2724.300781 L 1583.03125 2724.050781 L 1583.03125 2364.890625 L 1943.109375 2364.890625 Z M 341.328125 112.867188 L 3184.800781 112.867188 C 3310.769531 112.867188 3413.242188 215.363281 3413.242188 341.328125 L 3413.242188 1926.960938 L 112.871094 1926.960938 L 112.871094 341.328125 C 112.871094 215.363281 215.359375 112.867188 341.328125 112.867188 Z M 3184.800781 0.0117188 L 341.328125 0.0117188 C 153.117188 0.0117188 0 153.128906 0 341.328125 L 0 2023.5625 C 0 2211.769531 153.117188 2364.890625 341.328125 2364.890625 L 1470.160156 2364.890625 L 1470.160156 2723.96875 L 634.839844 2723.371094 C 634.816406 2723.371094 634.804688 2723.371094 634.792969 2723.371094 C 603.644531 2723.371094 578.382812 2748.609375 578.359375 2779.761719 C 578.339844 2810.941406 603.589844 2836.21875 634.75 2836.238281 L 1470.160156 2836.839844 L 1470.160156 2837.851562 L 2055.980469 2837.851562 L 2055.980469 2837.261719 L 2891.292969 2837.851562 C 2891.3125 2837.851562 2891.3125 2837.851562 2891.355469 2837.851562 C 2922.507812 2837.851562 2947.753906 2812.609375 2947.773438 2781.460938 C 2947.796875 2750.289062 2922.550781 2725 2891.378906 2724.980469 L 2055.980469 2724.390625 L 2055.980469 2364.890625 L 3184.800781 2364.890625 C 3373.027344 2364.890625 3526.117188 2211.769531 3526.117188 2023.5625 L 3526.117188 341.328125 C 3526.117188 153.128906 3373.027344 0.0117188 3184.800781 0.0117188" style="fill: inherit;"/><path d="M 1391.039062 1422.195312 L 2891.78125 1422.195312 C 2922.945312 1422.195312 2948.214844 1396.933594 2948.214844 1365.753906 C 2948.214844 1334.582031 2922.945312 1309.324219 2891.78125 1309.324219 L 1391.039062 1309.324219 C 1359.867188 1309.324219 1334.597656 1334.582031 1334.597656 1365.753906 C 1334.597656 1396.933594 1359.867188 1422.195312 1391.039062 1422.195312" style="fill: inherit;"/><path d="M 1391.046875 1613.628906 L 2141.414062 1613.628906 C 2172.589844 1613.628906 2197.84375 1588.367188 2197.84375 1557.199219 C 2197.84375 1526.019531 2172.589844 1500.757812 2141.414062 1500.757812 L 1391.046875 1500.757812 C 1359.871094 1500.757812 1334.601562 1526.019531 1334.601562 1557.199219 C 1334.601562 1588.367188 1359.871094 1613.628906 1391.046875 1613.628906" style="fill: inherit;"/><path d="M 679.496094 1754.9375 L 1102.539062 1754.9375 C 1158.5625 1754.9375 1204.132812 1709.367188 1204.132812 1653.355469 L 1204.132812 1471.378906 C 1204.132812 1440.214844 1178.863281 1414.957031 1147.691406 1414.957031 C 1116.527344 1414.957031 1091.269531 1440.214844 1091.269531 1471.378906 L 1091.269531 1642.0625 L 690.78125 1642.0625 L 690.78125 1241.578125 L 1036.164062 1241.578125 C 1067.339844 1241.578125 1092.597656 1216.320312 1092.597656 1185.15625 C 1092.597656 1153.984375 1067.339844 1128.714844 1036.164062 1128.714844 L 679.496094 1128.714844 C 623.476562 1128.714844 577.910156 1174.285156 577.910156 1230.308594 L 577.910156 1653.355469 C 577.910156 1709.367188 623.476562 1754.9375 679.496094 1754.9375" style="fill: inherit;"/><path d="M 1192.101562 1164.453125 L 912.351562 1426.09375 L 836.59375 1366.246094 C 815.484375 1349.554688 784.792969 1353.148438 768.09375 1374.289062 C 751.394531 1395.433594 755.003906 1426.101562 776.140625 1442.792969 L 884.8125 1528.617188 C 893.695312 1535.65625 904.378906 1539.121094 915.023438 1539.121094 C 927.039062 1539.121094 939.011719 1534.699219 948.347656 1525.972656 L 1258.714844 1235.6875 C 1278.394531 1217.292969 1279.433594 1186.425781 1261.03125 1166.757812 C 1242.617188 1147.089844 1211.761719 1146.039062 1192.101562 1164.453125" style="fill: inherit;"/><path d="M 1394.199219 571.589844 L 2894.9375 571.589844 C 2926.117188 571.589844 2951.375 546.332031 2951.375 515.152344 C 2951.375 483.972656 2926.117188 458.714844 2894.9375 458.714844 L 1394.199219 458.714844 C 1363.027344 458.714844 1337.757812 483.972656 1337.757812 515.152344 C 1337.757812 546.332031 1363.027344 571.589844 1394.199219 571.589844" style="fill: inherit;"/><path d="M 1394.207031 763.019531 L 2144.574219 763.019531 C 2175.742188 763.019531 2201.003906 737.753906 2201.003906 706.589844 C 2201.003906 675.410156 2175.742188 650.144531 2144.574219 650.144531 L 1394.207031 650.144531 C 1363.03125 650.144531 1337.761719 675.410156 1337.761719 706.589844 C 1337.761719 737.753906 1363.03125 763.019531 1394.207031 763.019531" style="fill: inherit;"/><path d="M 682.652344 904.339844 L 1105.703125 904.339844 C 1161.722656 904.339844 1207.292969 858.765625 1207.292969 802.75 L 1207.292969 620.789062 C 1207.292969 589.617188 1182.023438 564.347656 1150.851562 564.347656 C 1119.683594 564.347656 1094.414062 589.617188 1094.414062 620.789062 L 1094.414062 791.460938 L 693.941406 791.460938 L 693.941406 390.992188 L 1039.320312 390.992188 C 1070.492188 390.992188 1095.761719 365.726562 1095.761719 334.554688 C 1095.761719 303.382812 1070.492188 278.113281 1039.320312 278.113281 L 682.652344 278.113281 C 626.636719 278.113281 581.066406 323.6875 581.066406 379.703125 L 581.066406 802.75 C 581.066406 858.765625 626.636719 904.339844 682.652344 904.339844" style="fill: inherit;"/><path d="M 839.75 515.648438 C 818.640625 498.957031 787.949219 502.5625 771.25 523.679688 C 754.550781 544.832031 758.160156 575.511719 779.300781 592.199219 L 887.96875 678.019531 C 896.855469 685.054688 907.53125 688.515625 918.179688 688.515625 C 930.195312 688.515625 942.171875 684.101562 951.5 675.382812 L 1261.878906 385.097656 C 1281.554688 366.691406 1282.585938 335.824219 1264.1875 316.15625 C 1245.777344 296.484375 1214.917969 295.441406 1195.257812 313.863281 L 915.507812 575.496094 L 839.75 515.648438" style="fill: inherit;"/></g></svg>